<svg width="20" height="20" viewBox="0 0 20 20" fill="none" xmlns="http://www.w3.org/2000/svg">
<g clip-path="url(#clip0_802_222)">
<path d="M9.99935 1.66699C12.0837 3.94895 13.2683 6.91035 13.3327 10.0003C13.2683 13.0903 12.0837 16.0517 9.99935 18.3337M9.99935 1.66699C7.91495 3.94895 6.73039 6.91035 6.66602 10.0003C6.73039 13.0903 7.91495 16.0517 9.99935 18.3337M9.99935 1.66699C5.39698 1.66699 1.66602 5.39795 1.66602 10.0003C1.66602 14.6027 5.39698 18.3337 9.99935 18.3337M9.99935 1.66699C14.6017 1.66699 18.3327 5.39795 18.3327 10.0003C18.3327 14.6027 14.6017 18.3337 9.99935 18.3337M2.0827 7.50033H17.916M2.08268 12.5003H17.916" stroke="#030712" stroke-width="2" stroke-linecap="round" stroke-linejoin="round"/>
</g>
<defs>
<clipPath id="clip0_802_222">
<rect width="20" height="20" fill="white"/>
</clipPath>
</defs>
</svg>
