<svg width="20" height="20" viewBox="0 0 20 20" fill="none" xmlns="http://www.w3.org/2000/svg">
<path fill-rule="evenodd" clip-rule="evenodd" d="M8.28567 2.70801H11.713C13.2445 2.70799 14.4575 2.70798 15.4069 2.83562C16.3839 2.96698 17.1747 3.24374 17.7983 3.86738C18.4219 4.49101 18.6987 5.2818 18.8301 6.25882C18.9577 7.20817 18.9577 8.4212 18.9577 9.95267V10.0467C18.9577 11.5782 18.9577 12.7912 18.8301 13.7405C18.6987 14.7175 18.4219 15.5083 17.7983 16.132C17.1747 16.7556 16.3839 17.0324 15.4069 17.1637C14.4575 17.2914 13.2445 17.2914 11.713 17.2913H8.28567C6.75421 17.2914 5.54118 17.2914 4.59183 17.1637C3.61481 17.0324 2.82402 16.7556 2.20039 16.132C1.57675 15.5083 1.29999 14.7175 1.16863 13.7405C1.04099 12.7912 1.041 11.5782 1.04102 10.0467V9.95266C1.041 8.42119 1.04099 7.20817 1.16863 6.25882C1.29999 5.2818 1.57675 4.49101 2.20039 3.86738C2.82402 3.24374 3.61481 2.96698 4.59183 2.83562C5.54118 2.70798 6.7542 2.70799 8.28567 2.70801ZM4.75839 4.07447C3.91998 4.18719 3.43694 4.39859 3.08427 4.75126C2.73159 5.10394 2.5202 5.58697 2.40748 6.42538C2.29234 7.28177 2.29102 8.41066 2.29102 9.99968C2.29102 11.5887 2.29234 12.7176 2.40748 13.574C2.5202 14.4124 2.73159 14.8954 3.08427 15.2481C3.43694 15.6008 3.91998 15.8122 4.75839 15.9249C5.61478 16.04 6.74367 16.0413 8.33268 16.0413H11.666C13.255 16.0413 14.3839 16.04 15.2403 15.9249C16.0787 15.8122 16.5618 15.6008 16.9144 15.2481C17.2671 14.8954 17.4785 14.4124 17.5912 13.574C17.7064 12.7176 17.7077 11.5887 17.7077 9.99968C17.7077 8.41066 17.7064 7.28177 17.5912 6.42538C17.4785 5.58697 17.2671 5.10394 16.9144 4.75126C16.5618 4.39859 16.0787 4.18719 15.2403 4.07447C14.3839 3.95934 13.255 3.95801 11.666 3.95801H8.33268C6.74367 3.95801 5.61478 3.95934 4.75839 4.07447ZM4.51921 6.26623C4.74019 6.00105 5.13429 5.96523 5.39946 6.1862L7.19854 7.68544C7.97601 8.33332 8.51579 8.78169 8.9715 9.07478C9.41263 9.3585 9.71179 9.45374 9.99935 9.45374C10.2869 9.45374 10.5861 9.3585 11.0272 9.07478C11.4829 8.78169 12.0227 8.33332 12.8002 7.68544L14.5992 6.1862C14.8644 5.96523 15.2585 6.00105 15.4795 6.26623C15.7005 6.5314 15.6646 6.9255 15.3995 7.14648L13.5691 8.67182C12.8304 9.28737 12.2318 9.78628 11.7034 10.1261C11.153 10.4801 10.6169 10.7037 9.99935 10.7037C9.38179 10.7037 8.84574 10.4801 8.29533 10.1261C7.76695 9.78628 7.16828 9.28737 6.42965 8.67183L4.59923 7.14648C4.33406 6.9255 4.29823 6.5314 4.51921 6.26623Z" fill="#364153"/>
</svg>
