<svg width="20" height="20" viewBox="0 0 20 20" fill="none" xmlns="http://www.w3.org/2000/svg">
<path fill-rule="evenodd" clip-rule="evenodd" d="M3.54102 7.09585C3.54102 3.71086 6.47557 1.04199 9.99935 1.04199C13.5231 1.04199 16.4577 3.71086 16.4577 7.09585C16.4577 10.2718 14.4886 14.0004 11.3117 15.358C10.4776 15.7144 9.52106 15.7144 8.68702 15.358C5.51009 14.0004 3.54102 10.2718 3.54102 7.09585ZM9.99935 2.29199C7.07981 2.29199 4.79102 4.48429 4.79102 7.09585C4.79102 9.86947 6.54554 13.0835 9.17823 14.2086C9.69852 14.4309 10.3002 14.4309 10.8205 14.2086C13.4532 13.0835 15.2077 9.86947 15.2077 7.09585C15.2077 4.48429 12.9189 2.29199 9.99935 2.29199ZM9.99935 6.45866C9.42405 6.45866 8.95768 6.92503 8.95768 7.50033C8.95768 8.07562 9.42405 8.54199 9.99935 8.54199C10.5746 8.54199 11.041 8.07562 11.041 7.50033C11.041 6.92503 10.5746 6.45866 9.99935 6.45866ZM7.70768 7.50033C7.70768 6.23467 8.7337 5.20866 9.99935 5.20866C11.265 5.20866 12.291 6.23467 12.291 7.50033C12.291 8.76598 11.265 9.79199 9.99935 9.79199C8.7337 9.79199 7.70768 8.76598 7.70768 7.50033ZM2.99552 12.4975C3.22721 12.7533 3.20762 13.1486 2.95175 13.3803C2.47867 13.8087 2.29102 14.2187 2.29102 14.5837C2.29102 15.2201 2.89436 16.0043 4.36327 16.6654C5.77352 17.3 7.76561 17.7087 9.99935 17.7087C12.2331 17.7087 14.2252 17.3 15.6354 16.6654C17.1043 16.0043 17.7077 15.2201 17.7077 14.5837C17.7077 14.2187 17.52 13.8087 17.0469 13.3803C16.7911 13.1486 16.7715 12.7533 17.0032 12.4975C17.2349 12.2416 17.6301 12.222 17.886 12.4537C18.5218 13.0295 18.9577 13.7512 18.9577 14.5837C18.9577 16.0183 17.6955 17.109 16.1484 17.8053C14.5426 18.5279 12.368 18.9587 9.99935 18.9587C7.63071 18.9587 5.45614 18.5279 3.85031 17.8053C2.30315 17.109 1.04102 16.0183 1.04102 14.5837C1.04102 13.7512 1.47689 13.0295 2.11273 12.4537C2.36859 12.222 2.76384 12.2416 2.99552 12.4975Z" fill="#364153"/>
</svg>
