<svg width="237" height="32" viewBox="0 0 237 32" fill="none" xmlns="http://www.w3.org/2000/svg">
<path d="M122.365 26.0579H119.837L116.887 14.5127H116.831L113.909 26.0579H111.325L106.662 11.5352H109.303L112.589 23.4174H112.645L115.567 11.5352H118.179L121.213 23.4174H121.269L124.528 11.5352H127L122.365 26.0579Z" fill="#030712"/>
<path d="M93.3123 18.8098C93.3123 19.6899 93.4247 20.4765 93.6494 21.1694C93.8929 21.8435 94.2206 22.4147 94.6326 22.8829C95.0446 23.3323 95.5221 23.6788 96.0652 23.9222C96.627 24.1657 97.2169 24.2874 97.8349 24.2874C98.4529 24.2874 99.0334 24.1657 99.5765 23.9222C100.138 23.6788 100.625 23.3323 101.037 22.8829C101.449 22.4147 101.768 21.8435 101.992 21.1694C102.236 20.4765 102.357 19.6899 102.357 18.8098C102.357 17.9296 102.236 17.1524 101.992 16.4783C101.768 15.7854 101.449 15.2048 101.037 14.7367C100.625 14.2685 100.138 13.9127 99.5765 13.6692C99.0334 13.4258 98.4529 13.304 97.8349 13.304C97.2169 13.304 96.627 13.4258 96.0652 13.6692C95.5221 13.9127 95.0446 14.2685 94.6326 14.7367C94.2206 15.2048 93.8929 15.7854 93.6494 16.4783C93.4247 17.1524 93.3123 17.9296 93.3123 18.8098ZM90.7842 18.8098C90.7842 17.7423 90.934 16.7498 91.2336 15.8322C91.5333 14.8958 91.9827 14.0906 92.582 13.4164C93.1812 12.7235 93.9209 12.1804 94.8011 11.7872C95.6813 11.3939 96.6925 11.1973 97.8349 11.1973C98.9959 11.1973 100.007 11.3939 100.869 11.7872C101.749 12.1804 102.489 12.7235 103.088 13.4164C103.687 14.0906 104.136 14.8958 104.436 15.8322C104.736 16.7498 104.886 17.7423 104.886 18.8098C104.886 19.8772 104.736 20.8697 104.436 21.7874C104.136 22.705 103.687 23.5102 103.088 24.2031C102.489 24.8773 101.749 25.411 100.869 25.8043C100.007 26.1788 98.9959 26.3661 97.8349 26.3661C96.6925 26.3661 95.6813 26.1788 94.8011 25.8043C93.9209 25.411 93.1812 24.8773 92.582 24.2031C91.9827 23.5102 91.5333 22.705 91.2336 21.7874C90.934 20.8697 90.7842 19.8772 90.7842 18.8098Z" fill="#030712"/>
<path d="M85.2031 6H87.5908V26.0566H85.2031V6Z" fill="#030712"/>
<path d="M69.0469 6H82.2213V8.24723H71.7155V14.6238H80.9291V16.871H71.7155V26.0566H69.0469V6Z" fill="#030712"/>
<path d="M52.7617 6H55.1494V13.6687H55.2056C55.3929 13.2192 55.655 12.8447 55.9921 12.5451C56.3292 12.2267 56.7037 11.9739 57.1157 11.7866C57.5465 11.5806 57.9865 11.4308 58.436 11.3372C58.9042 11.2435 59.3536 11.1967 59.7843 11.1967C60.7394 11.1967 61.5353 11.3278 62.172 11.59C62.8087 11.8522 63.3237 12.2173 63.717 12.6855C64.1102 13.1537 64.3818 13.7155 64.5316 14.3709C64.7001 15.0077 64.7844 15.7193 64.7844 16.5058V26.0566H62.3967V16.2249C62.3967 15.326 62.1346 14.6144 61.6102 14.09C61.0858 13.5657 60.3649 13.3035 59.4472 13.3035C58.7169 13.3035 58.0802 13.4159 57.5371 13.6406C57.0127 13.8653 56.5727 14.1837 56.2168 14.5957C55.861 15.0077 55.5895 15.4946 55.4022 16.0564C55.2337 16.5995 55.1494 17.1987 55.1494 17.8542V26.0566H52.7617V6Z" fill="#030712"/>
<path d="M47.2547 16.1974C47.0674 15.2797 46.6741 14.5681 46.0749 14.0625C45.4756 13.5569 44.6703 13.304 43.6591 13.304C42.7977 13.304 42.0767 13.4632 41.4961 13.7816C40.9156 14.0999 40.4474 14.5213 40.0916 15.0457C39.7545 15.57 39.5111 16.1786 39.3613 16.8715C39.2114 17.5457 39.1365 18.248 39.1365 18.9783C39.1365 19.6525 39.2114 20.3079 39.3613 20.9446C39.5298 21.5814 39.7826 22.1525 40.1197 22.6582C40.4568 23.1451 40.8969 23.5383 41.4399 23.838C41.983 24.1376 42.6291 24.2874 43.3782 24.2874C44.558 24.2874 45.4756 23.9784 46.1311 23.3604C46.8052 22.7424 47.2172 21.8716 47.367 20.748H49.8109C49.5487 22.5458 48.8745 23.9316 47.7884 24.9054C46.7209 25.8792 45.2602 26.3661 43.4063 26.3661C42.3014 26.3661 41.3182 26.1882 40.4568 25.8324C39.6141 25.4766 38.9024 24.9709 38.3219 24.3155C37.7601 23.66 37.3294 22.8829 37.0298 21.984C36.7489 21.0664 36.6084 20.0645 36.6084 18.9783C36.6084 17.8922 36.7489 16.8809 37.0298 15.9445C37.3107 14.9895 37.732 14.1655 38.2938 13.4726C38.8744 12.761 39.5953 12.2085 40.4568 11.8153C41.3182 11.4033 42.3201 11.1973 43.4625 11.1973C44.2864 11.1973 45.0542 11.3003 45.7659 11.5063C46.4962 11.6935 47.1329 11.9932 47.676 12.4052C48.2378 12.8171 48.6966 13.3415 49.0525 13.9782C49.4083 14.5962 49.633 15.3359 49.7266 16.1974H47.2547Z" fill="#030712"/>
<path d="M32.1093 17.4052C32.0718 16.8434 31.9407 16.3097 31.716 15.8041C31.51 15.2985 31.2197 14.8677 30.8452 14.5119C30.4894 14.1374 30.0587 13.8471 29.553 13.6411C29.0661 13.4164 28.5231 13.304 27.9238 13.304C27.3058 13.304 26.744 13.4164 26.2384 13.6411C25.7515 13.8471 25.3301 14.1374 24.9743 14.5119C24.6185 14.8865 24.3376 15.3266 24.1316 15.8322C23.9256 16.3191 23.8039 16.8434 23.7664 17.4052H32.1093ZM34.4127 21.4503C34.0943 23.0795 33.3921 24.3061 32.3059 25.1301C31.2197 25.9541 29.8527 26.3661 28.2047 26.3661C27.0436 26.3661 26.0324 26.1788 25.1709 25.8043C24.3282 25.4297 23.6166 24.9054 23.0361 24.2312C22.4555 23.5571 22.0154 22.7518 21.7158 21.8154C21.4349 20.8791 21.2757 19.8585 21.2383 18.7536C21.2383 17.6487 21.4068 16.6374 21.7439 15.7198C22.081 14.8022 22.5492 14.0063 23.1484 13.3321C23.7664 12.658 24.4874 12.1336 25.3114 11.7591C26.1541 11.3845 27.0717 11.1973 28.0643 11.1973C29.3564 11.1973 30.4238 11.4688 31.2666 12.0119C32.128 12.5362 32.8115 13.2104 33.3172 14.0344C33.8415 14.8584 34.1973 15.7573 34.3846 16.7311C34.5906 17.7049 34.6749 18.6319 34.6374 19.512H23.7664C23.7477 20.1487 23.8226 20.7574 23.9911 21.3379C24.1597 21.8997 24.4312 22.4053 24.8058 22.8548C25.1803 23.2855 25.6578 23.632 26.2384 23.8941C26.8189 24.1563 27.5024 24.2874 28.289 24.2874C29.3002 24.2874 30.1242 24.0533 30.7609 23.5851C31.4164 23.117 31.8471 22.4053 32.0531 21.4503H34.4127Z" fill="#030712"/>
<path d="M13.6855 8.24723H7V6H23.0396V8.24723H16.3541V26.0566H13.6855V8.24723Z" fill="#030712"/>
</svg>
